<svg xmlns="http://www.w3.org/2000/svg" width="184.975" height="185.103" viewBox="0 0 184.975 185.103">
  <g id="Group_13137" data-name="Group 13137" transform="translate(-1075 -195)">
    <g id="arrow-left" transform="translate(1138.464 279)">
      <line id="Line_2" data-name="Line 2" x1="37.464" transform="translate(10.536 9)" fill="none" stroke="#fff" stroke-linecap="round" stroke-linejoin="round" stroke-width="2"/>
      <line id="Line_3" data-name="Line 3" x1="8" y1="9" transform="translate(40)" fill="none" stroke="#fff" stroke-linecap="round" stroke-linejoin="round" stroke-width="2"/>
      <line id="Line_4" data-name="Line 4" x1="8" y2="9" transform="translate(40 9)" fill="none" stroke="#fff" stroke-linecap="round" stroke-linejoin="round" stroke-width="2"/>
    </g>
    <path id="MODELKOS_-_AGENCY_-_MODELING_-_ACADEMY-_" data-name="MODELKOS - AGENCY - MODELING - ACADEMY- " d="M1174.107,1248.017c4.727-1.229,4.433-8.22,3.525-13.457l8.135,10.427,1.85-.481-4.089-15.739-.134.034,3.985,15.339-1.006-1.31-9.621-12.3-.223.057c1.055,4.057,3.106,13.425-.865,16.455l-3.951-15.205-1.695.44Zm-11.242.855a8.213,8.213,0,0,0,5.454-10.215,8.142,8.142,0,1,0-5.454,10.215Zm-.03-.183c-3.921,1.242-7.272-2.307-8.339-5.82-1.019-3.468-.2-8.36,3.7-9.509,3.855-1.172,7.229,2.4,8.271,5.845C1167.537,1242.695,1166.714,1247.541,1162.835,1248.689ZM1145.247,1232a8.131,8.131,0,1,0-2.9,16l5.167.935,2.9-16Zm.532,16.46-3.4-.617c-3.468-.627-5.616-4.667-4.831-9s4.2-7.293,7.667-6.666l3.4.617Zm-15.414-8.9c.31-2.781-2.33-3.6-3.062-5.492l-.627,1.707c2.962,1.089,4.253,2.252,3.166,5.214l-1.289,3.5-1.773-.653c-2.637-.97-3.721-1.49-4.716-3.523l-.636,1.729,8.735,3.211,5.609-15.265-8.605-3.162-1.673,3.017c1.582-1.9,3.015-2.328,4.9-1.637l3.653,1.344ZM1115,1224.264c1.867-1.629,3.328-1.852,5.065-.9l3.415,1.871-7.731,14.1,1.616.887,7.818-14.261-8.059-4.418Zm-9.624-.279c-4.074-3.277,5.507-6.921-1.025-12.177l-.117.145c1.257,1.01.789,2.879.219,5.022-.691,2.549-1.705,5.133.808,7.155a2.6,2.6,0,0,0,1.946.557,31.649,31.649,0,0,1-7.11,1.82c-.053-.042-2.594.249-4.053-.51l2.979,2.4c-.385-1.431,3.168-2.062,3.168-2.062,3.721-.731,6.67-1.641,9.772-4.616l-8.344,10.374,1.363,1.1,10.191-12.673-1.363-1.1a17.421,17.421,0,0,1-5.577,4.767A2.662,2.662,0,0,1,1105.379,1223.986Zm-15.853-4.844a8.212,8.212,0,0,0,11.359-2.25,8.141,8.141,0,1,0-11.359,2.25Zm.123-.138c-3.445-2.248-2.822-7.087-.78-10.136,2.039-2.985,6.345-5.45,9.7-3.157,3.349,2.241,2.722,7.112.717,10.1C1097.265,1218.844,1092.993,1221.277,1089.649,1219Zm-6.574-14c2.273-1.31,2.2-4.061,1.931-6.749-.547-5.881,1.3-7.425,3.16-6.74,3.564,1.295,4.406,6.766.585,11.573l2.773-1.6c1.593-3.923-.242-8.954-3.292-10.228a3.56,3.56,0,0,0-3.162.281c-2.354,1.359-2.294,4.089-1.978,6.806.532,6.179-1.571,7.606-3.487,6.636-2.335-1.1-4.129-4.905-1.2-9.279l-2.094,1.208C1074.525,1200.231,1078.624,1207.571,1083.074,1205Zm-5.65-20.448,1.057-.323-1.871-6.124-1.059.323Zm3.687-27.635-.121-1.933-15.8,7.895.011.162a72.929,72.929,0,0,0,10.755,4.378,16.411,16.411,0,0,0,3.832.751c1.042.051,1.716-.245,1.952-.882a.58.58,0,0,0,.138-.378c-.019-1.038-.893-1.376-2.071-1.74-1.724-.631-4.148-1.378-4.763-5.263Zm-6.224,3.068c.64,3.953,3.111,4.72,4.884,5.371,1.08.3,1.907.619,1.9,1.542a1.3,1.3,0,0,0-.094.33c-.151.563-.853.77-1.8.782a16.479,16.479,0,0,1-3.785-.755,77.743,77.743,0,0,1-8.754-3.4Zm5.769-17.727a5.136,5.136,0,0,1,1.138,2.611c.614,3.942-3.385,6.868-6.991,7.382-3.581.493-8.269-1.087-8.9-5.1-.793-5.005,4.659-6.862,4.948-6.944l-2.381-.272s-3.547,2.026-2.728,7.221a8.183,8.183,0,0,0,9.313,6.934,8.08,8.08,0,0,0,6.857-9.254,7.618,7.618,0,0,0-2.156-4.442l-4.784-.548-1,8.741,1.763.2c-1.3-1.795-1.1-4.393-.776-7.185Zm-7.412-7.954c2.794.149,3.464-2.537,5.307-3.374l-1.741-.527c-.917,3.019-2,4.376-5.022,3.459l-3.57-1.082.549-1.807c.814-2.69,1.271-3.8,3.245-4.912l-1.763-.536-2.7,8.907,15.564,4.718,2.66-8.775-3.109-1.495c1.986,1.467,2.5,2.875,1.916,4.793l-1.129,3.725Zm-1.388-13.16,14.593,7.176.763-1.552-14.45-7.1c1.1-2.233,3.585-3.062,6.551-3.145a27.5,27.5,0,0,1,11.548,2.828l.761-1.55-14.593-7.176-.763,1.552,11.867,5.832a24.824,24.824,0,0,0-8.86-1.609c-2.987.021-5.547.944-6.655,3.2Zm11.614-19.249c1.918-4.85,7.812-3.468,7.812-3.468l-1.907-1.45s-4.072-.085-6.06,4.856a8.228,8.228,0,0,0,4.5,10.678,8.1,8.1,0,0,0,10.646-4.495,7.914,7.914,0,0,0,.4-4.905l-2.33-1.769c1.786,1.763,2.809,4.187,1.812,6.64-1.525,3.759-6.43,4.2-9.821,2.839C1085.2,1109.4,1081.949,1105.69,1083.47,1101.9Zm16.43-16.145a2.71,2.71,0,0,1,.33-2.071l-1.929,1.746a.9.9,0,0,1,1.471.6l2.133,8.014-3.166-.955-6.634-2.039-1.537,1.391,10.506,3.225,4.593,5.071,1.35-1.223-4.918-5.428Zm13.968-1.782.534.968,5.607-3.092-.534-.967Zm26.238-18.471c-4.714,1.272-4.354,8.263-3.4,13.491l-8.235-10.351-1.846.5,4.238,15.7.134-.036-4.131-15.3,1.021,1.3,9.738,12.211.221-.06c-1.091-4.048-3.234-13.4.71-16.466l4.1,15.169,1.69-.457Zm11.242-.961a8.212,8.212,0,0,0-5.358,10.266,8.141,8.141,0,1,0,5.358-10.266Zm.032.183c3.91-1.278,7.293,2.239,8.392,5.741,1.051,3.459.274,8.358-3.617,9.545-3.844,1.206-7.25-2.335-8.324-5.769C1146.733,1070.761,1147.511,1065.907,1151.379,1064.723Zm17.742,16.53a8.132,8.132,0,1,0,2.745-16.03l-5.177-.886-2.745,16.03Zm-.689-16.453,3.406.583c3.472.6,5.66,4.614,4.916,8.952s-4.129,7.331-7.6,6.736l-3.4-.583Zm15.494,8.756c-.283,2.783,2.367,3.583,3.115,5.465l.61-1.714c-2.972-1.061-4.274-2.211-3.213-5.184l1.252-3.515,1.78.636c2.647.944,3.736,1.454,4.75,3.481l.621-1.737-8.767-3.126-5.464,15.316,8.635,3.081,1.646-3.032c-1.563,1.911-2.994,2.356-4.882,1.682l-3.666-1.308Zm15.507,15.139c-1.85,1.648-3.308,1.886-5.054.948l-3.432-1.837,7.595-14.172-1.625-.872-7.682,14.333,8.1,4.344Zm-.325,4,1.437.959,9.028-13.527-1.437-.959Zm13.34-10.753L1202,1094.408l1.325,1.11,10.34-12.341c1.907,1.6,2.122,4.21,1.495,7.11a27.529,27.529,0,0,1-5.5,10.542l1.325,1.108,10.444-12.464-1.325-1.11-8.492,10.134a24.769,24.769,0,0,0,3.674-8.22c.691-2.907.4-5.611-1.52-7.225Zm9.136,29.844a5.143,5.143,0,0,1-2.662-1.014c-3.249-2.318-2.543-7.223-.387-10.159,2.152-2.9,6.562-5.15,9.87-2.792,4.131,2.934,1.644,8.131,1.5,8.395l1.86-1.512s1.033-3.953-3.251-7a8.188,8.188,0,0,0-11.471,1.805,8.082,8.082,0,0,0,1.816,11.374,7.626,7.626,0,0,0,4.684,1.567l3.738-3.034-5.545-6.832-1.378,1.119c2.194.325,3.906,2.288,5.677,4.469Zm11.295,5.932-1,.472,2.728,5.794,1-.472Zm.289,27.882.4,1.895,14.518-10.055-.032-.157a72.932,72.932,0,0,0-11.265-2.811,16.51,16.51,0,0,0-3.9-.2c-1.038.1-1.663.487-1.807,1.152a.578.578,0,0,0-.083.393c.166,1.025,1.08,1.233,2.3,1.429,1.8.378,4.3.776,5.462,4.533Zm5.726-3.921c-1.195-3.821-3.751-4.231-5.6-4.625-1.112-.145-1.978-.34-2.1-1.257a1.323,1.323,0,0,0,.047-.34c.068-.578.734-.882,1.669-1.029a16.5,16.5,0,0,1,3.855.21,77.879,77.879,0,0,1,9.145,2.122Zm10.693,11.414c1.537,4.984-3.923,7.593-3.923,7.593l2.394-.064s3.23-2.481,1.69-7.578a8.231,8.231,0,0,0-10.193-5.516,8.1,8.1,0,0,0-5.492,10.168,7.894,7.894,0,0,0,2.758,4.076l2.924-.077c-2.5-.257-4.81-1.51-5.569-4.049-1.161-3.887,2.39-7.3,5.888-8.358C1243.541,1148.324,1248.4,1149.187,1249.588,1153.1Zm-17.716,21.429-.334,1.905,17.208-3.972.028-.157a72.877,72.877,0,0,0-9.428-6.778,16.486,16.486,0,0,0-3.549-1.629c-1-.291-1.726-.161-2.1.4a.58.58,0,0,0-.223.336c-.226,1.012.546,1.546,1.605,2.177,1.529,1.016,3.71,2.311,3.4,6.232Zm6.77-1.525c.3-3.993-1.92-5.318-3.489-6.366-.98-.546-1.712-1.048-1.484-1.943a1.336,1.336,0,0,0,.17-.3c.276-.515,1.008-.549,1.931-.34a16.493,16.493,0,0,1,3.5,1.62,77.8,77.8,0,0,1,7.712,5.354Zm-9.437,9.923a8.132,8.132,0,1,0,15.165,5.875l1.9-4.9-15.165-5.877Zm16.262,2.594-1.248,3.221c-1.273,3.287-5.647,4.631-9.749,3.041s-6.366-5.5-5.092-8.79l1.248-3.221Zm-11.658,13.442c-2.675-.829-3.983,1.61-5.975,1.969l1.561.94c1.629-2.7,3.013-3.751,5.715-2.122l3.2,1.924-.974,1.618c-1.45,2.407-2.169,3.374-4.353,3.968l1.578.951,4.8-7.972-13.929-8.395-4.733,7.854,2.647,2.213c-1.565-1.911-1.716-3.4-.683-5.118l2.009-3.334Zm-11.133,23.833c3.213-3.678-.972-9.288-4.674-13.1l12.6,4.029,1.257-1.442-12.247-10.7-.092.1,11.937,10.423-1.569-.515-14.882-4.74-.153.174c3.157,2.756,10.134,9.337,8.561,14.08l-11.833-10.334-1.15,1.318Zm-13.387,9.222a2.715,2.715,0,0,1-.5,2.039l2.063-1.588a.9.9,0,0,1-1.418-.71l-1.484-8.158,3.079,1.206,6.451,2.562,1.642-1.263-10.215-4.057-4.172-5.42-1.442,1.11,4.467,5.8Zm-7.814-2.79-.538-.965-5.6,3.113.538.965Z" transform="translate(9.81 -869.143)" fill="#fff" fill-rule="evenodd"/>
  </g>
</svg>
