<svg xmlns="http://www.w3.org/2000/svg" width="86.838" height="37.959" viewBox="0 0 86.838 37.959">
  <g id="Group_13147" data-name="Group 13147" transform="translate(-132.809 -119.495)">
    <path id="Path_346" data-name="Path 346" d="M141.9,119.97s1.524.623,1.315,3.306a3.928,3.928,0,0,0-.44,1.176,6.635,6.635,0,0,1-.291,1.749s-.384.653-.713,1.133c-.354.513-.67.834-1.205.2,0,0,.3,2.536,1.538,2.565,0,0,1.708-.314,2.358,2.7l-.219,1.665s.591,1.854-.2,2.733c0,0-3.539,1.884-.149,7.6a21.934,21.934,0,0,1,.277,3.7s-1.406,8.236-2.357,8.735c0,0-.285.522-4.065-.016,0,0-4.764-11.521-.581-15.145,0,0,.72-3.784-1-5.635l-1.475,3.945c.277.785,2.821,3.58,1.477,5.035,0,0-3.73-3.053-3.342-5.972l1.848-7.79s0-1.8,3.1-1.69a3.534,3.534,0,0,0,.631-2.451s-2.17.573-2.8-.616c0,0,1.174-.448.782-3.133a7.687,7.687,0,0,1,.28-2.24c.736-1.561,2.03-2.221,4-1.974Z" fill="#1d1d1d"/>
    <path id="Path_347" data-name="Path 347" d="M154.362,204.479a5.537,5.537,0,0,0,.279-2.238,6.018,6.018,0,0,0-.5-1.96l-.392-.67-.28-.447,1.457-1.094c1.234-.955-.87-5.428-.87-5.428l.465.016L155.7,195.7a4.465,4.465,0,0,1,3.506,1.731l.465.016.859-1.634a4.13,4.13,0,0,0-.751-3.16l.465.083c.783.428.879,3.3.879,3.3a12.231,12.231,0,0,0,1.187,2.177,2.74,2.74,0,0,1-.958,2.021,11.493,11.493,0,0,0-.928,1.959c-.344,2.388.1,2.144.257,3.245a6.244,6.244,0,0,1,.559,2.4s-1.661,5.062-3.044,4.613c0,0-.873-5.339-4.341-6.179l-.782.893A7.307,7.307,0,0,1,154.362,204.479Z" transform="translate(-17.342 -62.592)" fill="#fff"/>
    <text id="Braty" transform="translate(160.647 147.926)" fill="#1d1d1d" font-size="26" font-family="SegoeUI, Segoe UI"><tspan x="0" y="0">Braty</tspan></text>
  </g>
</svg>
