<svg xmlns="http://www.w3.org/2000/svg" width="63.539" height="53.767" viewBox="0 0 63.539 53.767">
  <g id="camera" transform="translate(0.5 -2.5)">
    <path id="Path_10" data-name="Path 10" d="M23.635,10A15.635,15.635,0,1,0,39.269,25.636,15.633,15.633,0,0,0,23.635,10Zm8.9,23.266a11.724,11.724,0,1,1-1.27-16.532A11.722,11.722,0,0,1,32.537,33.267Z" transform="translate(7.635 6.681)" fill="rgba(51,51,51,0)" stroke="gray" stroke-width="1" fill-rule="evenodd"/>
    <path id="Path_12" data-name="Path 12" d="M57.637,14.808,49.167,13.4,46.484,6.684A5.839,5.839,0,0,0,41.041,3H21.5a5.843,5.843,0,0,0-5.445,3.686L13.372,13.4,4.9,14.808A5.841,5.841,0,0,0,0,20.589V49.9a5.87,5.87,0,0,0,5.863,5.863H56.676A5.87,5.87,0,0,0,62.539,49.9V20.589A5.841,5.841,0,0,0,57.637,14.808Z" fill="rgba(51,51,51,0)" stroke="gray" stroke-width="1" fill-rule="evenodd"/>
  </g>
</svg>
