<svg xmlns="http://www.w3.org/2000/svg" width="47.547" height="79.429" viewBox="0 0 47.547 79.429">
  <path id="_498953_dress_clothes_bride_wedding_clothing_icon" data-name="498953_dress_clothes_bride_wedding_clothing_icon" d="M63.1,73.1a9.821,9.821,0,0,1-5,2,18.726,18.726,0,0,1-7.1-.7h0c-2.8-7-7.9-19.5-8.7-22.4.1.7,2.8,19.6,5.2,26.5a2.609,2.609,0,0,1-2.4.7c-4.4-.7-8.1-4.1-10.1-2.1-1.7,1.7-6.4,1.3-7.5.6,1.9-8.4,3.7-20.6,3.8-21.2-.7,2.6-4.8,12.8-7.7,19.9-3.5.3-6.9-1.4-6.8-2.2,11.1-21.3,12.9-33,12.5-40-.4-6,2.3-12.8,2.7-15.6.3-2.8-1.5-6.8-1.5-6.8-1.1-5.4,8.7-4.9,12.2-7.6A23.7,23.7,0,0,1,44.2.9l.9.3c-1.6,4.5,1.1,6.2.4,9.2-.5,2.5-2.3,3.8-1.8,8.5.4,3.8,3.3,7.5,3.4,13.2.1,4-1.6,7.4.5,13.9C50.4,54.7,56.4,66.9,63.1,73.1Z" transform="translate(-16.297 -0.294)" fill="rgba(28,43,54,0)" stroke="#fff" stroke-width="1"/>
</svg>
