<svg xmlns="http://www.w3.org/2000/svg" width="184.08" height="184" viewBox="0 0 184.08 184">
  <g id="Group_13177" data-name="Group 13177" transform="translate(-867.96 -15695.999)">
    <path id="MODELkos_-_Instagram_-_agency_-_modeling_-_-_photography-_" data-name="MODELkos - Instagram - agency - modeling - - photography- " d="M902.45,942.787c4.523-1.141,4.291-7.822,3.459-12.831l7.7,10.019,1.771-.447-3.8-15.062-.128.031,3.7,14.679-.952-1.257L905.1,926.1l-.214.055c.979,3.883,2.874,12.844-.941,15.711l-3.668-14.55-1.621.408Zm-10.581.794a7.844,7.844,0,0,0,5.179-9.772,7.776,7.776,0,1,0-5.179,9.772Zm-.029-.175c-3.742,1.2-6.952-2.181-7.981-5.534-.984-3.309-.214-7.983,3.51-9.093,3.678-1.129,6.91,2.271,7.916,5.558C896.313,937.667,895.541,942.3,891.841,943.407ZM874.985,927.58a7.767,7.767,0,0,0-2.562,15.321l4.948.827,2.562-15.322Zm.718,15.714-3.256-.545c-3.32-.555-5.423-4.386-4.73-8.532s3.918-7.019,7.239-6.463l3.254.544Zm-14.758-8.253c.239-2.662-2.3-3.4-3.037-5.183l-.565,1.644c2.852.978,4.108,2.061,3.129,4.912l-1.156,3.372-1.707-.585c-2.539-.872-3.586-1.347-4.578-3.27l-.571,1.665,8.407,2.885,5.043-14.692-8.283-2.843-1.535,2.915c1.469-1.845,2.831-2.284,4.642-1.664l3.516,1.207Zm-15-14.209c1.737-1.606,3.127-1.859,4.811-1l3.31,1.7-7,13.671,1.567.8,7.077-13.829-7.815-4Zm-9.162.069c-4-2.986,5.015-6.8-1.4-11.586l-.106.141c1.235.92.853,2.721.382,4.786-.57,2.456-1.447,4.958,1.022,6.8a2.491,2.491,0,0,0,1.876.467,30.3,30.3,0,0,1-6.723,1.984c-.054-.039-2.468.329-3.887-.345l2.928,2.184c-.419-1.355,2.951-2.081,2.951-2.081,3.527-.828,6.309-1.8,9.166-4.747l-7.6,10.195,1.34,1,9.286-12.452-1.34-1a16.63,16.63,0,0,1-5.157,4.745,2.542,2.542,0,0,1-2.733-.09Zm-15.242-3.953a7.844,7.844,0,0,0,10.744-2.631,7.776,7.776,0,1,0-10.744,2.631Zm.112-.137c-3.383-2-2.994-6.643-1.175-9.641,1.818-2.936,5.821-5.47,9.126-3.427,3.29,2,2.9,6.672,1.113,9.608-1.8,2.983-5.775,5.485-9.064,3.459Zm-6.828-12.968c2.1-1.369,1.892-3.99,1.493-6.539-.824-5.581.859-7.149,2.666-6.592,3.467,1.051,4.552,6.226,1.156,11.01l2.563-1.669c1.317-3.824-.7-8.527-3.667-9.585a3.4,3.4,0,0,0-3,.432c-2.176,1.416-1.978,4.018-1.536,6.592.827,5.867-1.105,7.335-2.982,6.51-2.285-.928-4.193-4.464-1.625-8.788l-1.936,1.261C806.427,899.729,810.717,906.52,814.828,903.843Zm-6.465-19.1.988-.374-2.167-5.72-.988.374Zm3.383-15.993-.344-1.614-15.194,3.235.344,1.614Zm-16.279-1.467,15.448-1.634-.174-1.642-15.294,1.618c-.25-2.364,1.337-4.3,3.693-5.878a26.257,26.257,0,0,1,10.771-3.595l-.174-1.642-15.448,1.634.174,1.64,12.559-1.327a23.613,23.613,0,0,0-7.979,3.211c-2.4,1.537-4,3.587-3.749,5.972Zm2.526-16.157c2.5.15,3.893-2.081,5.088-4.368,2.656-4.977,4.942-5.238,6.063-3.716,2.163,2.906-.042,7.712-5.618,9.539l3.053.182c3.333-2.292,4.512-7.269,2.751-9.886a3.4,3.4,0,0,0-2.669-1.438c-2.592-.155-3.98,2.054-5.155,4.386-2.824,5.209-5.25,5.24-6.268,3.46-1.285-2.1-.717-6.082,3.918-8.032l-2.306-.137C793.686,842.82,793.1,850.83,797.994,851.123Zm13.78-16.117.391-1.648L797.2,829.8c.561-2.265,1.015-3.6,2.71-4.738l-1.67-.4L795.429,836.5l1.669.4c-1.013-1.733-.81-3.155-.287-5.45Zm4.7-14.443.659-1.728-16.858.612-.055.145a69.668,69.668,0,0,0,7.616,8.062,15.751,15.751,0,0,0,3.034,2.17c.886.455,1.589.464,2.047,0a.548.548,0,0,0,.269-.275c.394-.909-.233-1.549-1.112-2.331-1.25-1.229-3.061-2.84-2.057-6.459Zm-6.625.2c-1.007,3.69.838,5.335,2.121,6.6.82.69,1.414,1.293,1.039,2.093a1.268,1.268,0,0,0-.213.248c-.353.432-1.045.331-1.872-.031a15.667,15.667,0,0,1-2.993-2.154,74.4,74.4,0,0,1-6.265-6.416Zm11.974-13.153a4.908,4.908,0,0,1-.029,2.721c-1.006,3.676-5.635,4.663-8.979,3.7-3.314-.97-6.781-4.18-5.76-7.925,1.266-4.673,6.743-4.158,7.026-4.117l-1.967-1.17s-3.885.381-5.2,5.228a7.819,7.819,0,0,0,5.406,9.684,7.719,7.719,0,0,0,9.594-5.382,7.294,7.294,0,0,0-.142-4.716l-3.954-2.348-4.292,7.226,1.457.866c-.432-2.073.762-4.256,2.132-6.565Zm1.013-12.22c1.1-1.585,1.37-3.531-.232-4.973-1.865-1.677-4.365-.345-6.528,2.06l-2.589,2.879,11.566,10.4,1.163-1.292-9.178-8.255a6.85,6.85,0,0,0,2.259.877,3.137,3.137,0,0,0,2.973-.936c3.325-3.7,6.315,5.678,11.671-.276l-.132-.117c-.986,1.1-2.773.583-4.755-.076-2.126-.727-4.293-1.641-6.216-.293Zm-1.4-3.681c1.718,1.545,1.692,3.12.816,4.226l-.1.115a3.176,3.176,0,0,1-2.837.851,6.987,6.987,0,0,1-3.523-1.807l-1.014-.913L816.2,792.6c1.427-1.587,3.37-2.562,5.234-.885Zm22.194-3.351,1.471-1.119-14.641-8.38-.122.093a69.639,69.639,0,0,0,2.213,10.868,15.7,15.7,0,0,0,1.432,3.445c.512.855,1.1,1.233,1.737,1.083a.547.547,0,0,0,.374-.09c.814-.565.619-1.439.286-2.567-.412-1.705-1.1-4.028,1.662-6.573Zm-5.736-3.323c-2.8,2.6-2.1,4.974-1.683,6.728.332,1.018.519,1.844-.222,2.325a1.251,1.251,0,0,0-.312.1c-.527.18-1.063-.27-1.574-1.014a15.793,15.793,0,0,1-1.406-3.41,74.254,74.254,0,0,1-1.934-8.757Zm13.552-18.5c-4.177,2.076-2.531,8.554-.653,13.272l-9.652-8.152-1.635.813,6.912,13.911.119-.059L839.8,772.765l1.2,1.026,11.41,9.612.2-.1c-1.782-3.586-5.539-11.94-2.421-15.553l6.677,13.438,1.5-.744Zm12.443,3.823.244,1.028,5.952-1.406-.242-1.028Zm26.1,5.043,1.849-.03-6.83-15.425-.154,0a69.653,69.653,0,0,0-4.656,10.066,15.667,15.667,0,0,0-.888,3.623c-.094.992.159,1.648.756,1.9a.547.547,0,0,0,.355.148c.991.028,1.352-.792,1.752-1.9.678-1.617,1.5-3.9,5.234-4.31Zm-2.651-6.075c-3.8.436-4.642,2.76-5.342,4.422-.335,1.018-.675,1.793-1.556,1.742a1.283,1.283,0,0,0-.31-.105c-.531-.167-.7-.848-.666-1.75a15.786,15.786,0,0,1,.888-3.579,74.343,74.343,0,0,1,3.63-8.2ZM904,775.636a4.918,4.918,0,0,1-2.541.974c-3.788.417-6.41-3.524-6.745-6.988-.318-3.438,1.391-7.844,5.249-8.272,4.811-.543,6.348,4.74,6.415,5.018l.363-2.26s-1.782-3.473-6.775-2.914a7.819,7.819,0,0,0-7.016,8.59,7.718,7.718,0,0,0,8.535,6.941,7.28,7.28,0,0,0,4.333-1.867l.729-4.541-8.3-1.331-.269,1.673c1.769-1.165,4.239-.858,6.888-.432Zm7.833-6.786c-.241,2.663,2.3,3.4,3.034,5.184l.565-1.644c-2.85-.98-4.107-2.063-3.127-4.914l1.159-3.371,1.705.587c2.539.873,3.584,1.349,4.575,3.271l.572-1.665-8.406-2.89-5.05,14.689,8.282,2.847,1.536-2.915c-1.471,1.844-2.832,2.283-4.642,1.661l-3.516-1.209Zm12.5-.924-7.255,13.736,1.459.771,7.183-13.6c2.1,1.11,2.825,3.507,2.822,6.342a26.27,26.27,0,0,1-3.02,10.946l1.459.771,7.255-13.736-1.459-.771-5.9,11.167a23.648,23.648,0,0,0,1.782-8.415c.064-2.853-.747-5.322-2.868-6.441Zm17.98,11.49c4.595,1.923,3.164,7.525,3.164,7.525l1.42-1.794s.158-3.887-4.523-5.879a7.861,7.861,0,0,0-10.282,4.1,7.734,7.734,0,0,0,4.093,10.251,7.55,7.55,0,0,0,4.676.473L942.6,791.9c-1.716,1.673-4.051,2.6-6.376,1.6-3.561-1.527-3.889-6.218-2.526-9.432C935.114,780.929,938.723,777.893,942.315,779.416Zm15.1,15.83a2.589,2.589,0,0,1,1.974.338l-1.648-1.861a.864.864,0,0,1-.584,1.4l-7.677,1.952.945-3.013,2.018-6.316-1.313-1.482-3.192,10-4.891,4.334,1.153,1.3,5.238-4.64Zm1.561,13.248-.926.51L961,814.36l.924-.51Zm17.76,24.842c-1.266-4.489-7.938-4.071-12.922-3.1l9.8-7.977-.5-1.758-14.951,4.217.036.128,14.569-4.11-1.231.987-11.559,9.433.06.211c3.854-1.086,12.758-3.232,15.732.5l-14.443,4.073.454,1.61Zm1.091,10.564a7.846,7.846,0,0,0-9.912-4.91,7.777,7.777,0,1,0,9.912,4.91Zm-.175.034c1.3,3.707-1.99,7.009-5.313,8.129-3.28,1.074-7.976.433-9.187-3.26-1.229-3.646,2.081-6.97,5.339-8.066,3.3-1.119,7.951-.475,9.161,3.2Zm-15.358,17.281a7.767,7.767,0,0,0,15.385,2.136l.69-4.969-15.385-2.136Zm15.687-1.155-.454,3.269c-.463,3.335-4.234,5.544-8.4,4.966s-7.124-3.721-6.661-7.055l.454-3.27Zm-7.836,14.985c-2.669-.164-3.33,2.4-5.1,3.18l1.66.519c.9-2.878,1.945-4.164,4.823-3.266l3.4,1.063-.537,1.722c-.8,2.562-1.246,3.621-3.14,4.667l1.681.525,2.648-8.485-14.827-4.63-2.61,8.359,2.957,1.454c-1.884-1.419-2.363-2.767-1.793-4.594l1.108-3.549ZM956.36,890.43c-1.655-1.692-1.947-3.074-1.132-4.783l1.6-3.356,13.861,6.613.757-1.588-14.019-6.689-3.781,7.923Zm-3.823-.124-.844,1.417,13.346,7.948.845-1.417Zm10.952,12.13-12.448-9.291-.987,1.322,12.325,9.2c-1.421,1.9-3.9,2.249-6.7,1.807A26.257,26.257,0,0,1,945.33,900.8l-.987,1.323,12.449,9.291.987-1.322-10.122-7.554A23.639,23.639,0,0,0,955.7,905.6c2.809.5,5.373.085,6.807-1.837Zm-27.884,10.38a4.921,4.921,0,0,1,.8-2.6c2.008-3.24,6.728-2.872,9.66-1,2.9,1.871,5.316,5.934,3.274,9.234-2.54,4.121-7.646,2.073-7.907,1.954l1.556,1.679s3.833.738,6.472-3.536a7.82,7.82,0,0,0-2.434-10.821,7.719,7.719,0,0,0-10.728,2.438,7.274,7.274,0,0,0-1.2,4.562l3.124,3.374,6.167-5.712-1.151-1.242c-.175,2.111-1.939,3.865-3.908,5.689Zm-4.829,11.145-.523-.918-5.316,3.024.522.918Z" transform="translate(73.67 14936.053)" fill="#fff" fill-rule="evenodd"/>
    <path id="Subtraction_5" data-name="Subtraction 5" d="M26,52h0L0,26,26,0,52,26,26,52Zm6.26-35.073h0V35.735h2.1V16.265c-5.732,0-7.588,7.9-8.135,14.533L19.933,16.265H17.644v19.47h.165V16.761l.772,1.82,7.446,17.153H26.3a51.448,51.448,0,0,1,.91-10.418c.965-4.565,2.662-7.388,5.045-8.39Z" transform="translate(933.96 15762)" fill="#fff"/>
  </g>
</svg>
