<svg xmlns="http://www.w3.org/2000/svg" width="48.574" height="64.421" viewBox="0 0 48.574 64.421">
  <path id="_9040369_gender_ambiguous_icon" data-name="9040369_gender_ambiguous_icon" d="M33.726,3.964a1.982,1.982,0,0,1,0-3.964H49.581a1.982,1.982,0,0,1,1.982,1.982V17.837a1.982,1.982,0,1,1-3.964,0V6.766L33.924,20.441a15.855,15.855,0,0,1-12.09,23.042V51.53H27.78a1.982,1.982,0,1,1,0,3.964H21.835v5.946a1.982,1.982,0,1,1-3.964,0V55.494H11.925a1.982,1.982,0,0,1,0-3.964h5.946V43.483A15.855,15.855,0,1,1,31.629,17.132L44.8,3.964ZM29.774,21.191a11.893,11.893,0,1,0-3.361,16.478,11.893,11.893,0,0,0,3.361-16.478Z" transform="translate(-3.489 0.5)" fill="rgba(197,178,171,0)" stroke="gray" stroke-width="1" fill-rule="evenodd"/>
</svg>
