<svg xmlns="http://www.w3.org/2000/svg" width="194.184" height="43.386" viewBox="0 0 194.184 43.386">
  <g id="Group_13177" data-name="Group 13177" transform="translate(-1144 -13056.063)">
    <path id="Union_2" data-name="Union 2" d="M29.62,20.3C29.792,15.65,38.451.185,43.491.013a30.575,30.575,0,0,1,9.692,1.422s-6.289,2.2-7.323,8.874-5.73,3.747-5.816,5.126,2.413,1.594,2.369,2.972-1.279,1.184-1.107,2,.515.5.569,1.412-1.649.571-.668,2.314-.215,3.92-.215,3.92S29.448,24.955,29.62,20.3ZM11.976,24.136c.981-1.744-.722-1.4-.668-2.314s.4-.594.569-1.412-1.064-.624-1.107-2,2.455-1.594,2.369-2.972-4.782,1.551-5.815-5.126S0,1.435,0,1.435A30.575,30.575,0,0,1,9.692.013c5.04.172,13.7,15.637,13.871,20.29s-11.372,7.754-11.372,7.754S10.994,25.881,11.976,24.136Z" transform="translate(1144 13065.072)" fill="gray"/>
    <path id="Union_1" data-name="Union 1" d="M23.188,17.547C24.98,4.723,37.861.243,39.989.075a15.219,15.219,0,0,1,3.192,0s-5.992,5.656-5.768,10.416-5.432,8.064-6.048,10.08,1.387,1.972,1.663,3.528-.584,1.606-.558,2.695.569.952.661,1.659-.9.754-.928,1.276.615,1.311.766,1.88.059,5.41.059,5.41S21.4,30.372,23.188,17.547ZM10.212,31.609c.151-.569.789-1.358.766-1.88s-1.021-.569-.928-1.276.635-.571.661-1.659-.834-1.139-.558-2.695,2.279-1.512,1.664-3.528-6.273-5.32-6.048-10.08S0,.075,0,.075a15.219,15.219,0,0,1,3.192,0C5.32.243,18.2,4.723,19.993,17.547s-9.84,19.471-9.84,19.471S10.061,32.178,10.212,31.609Z" transform="translate(1151.001 13062.43)"/>
    <circle id="Ellipse_1" data-name="Ellipse 1" cx="4.4" cy="4.4" r="4.4" transform="translate(1166.125 13056.063)"/>
    <text id="KosovaGirls" transform="translate(1205.184 13088.462)" fill="#1d1d1d" font-size="26" font-family="SegoeUI, Segoe UI"><tspan x="0" y="0">KosovaGirls</tspan></text>
  </g>
</svg>
