<svg xmlns="http://www.w3.org/2000/svg" width="77.144" height="59.731" viewBox="0 0 77.144 59.731">
  <g id="Group_13177" data-name="Group 13177" transform="translate(10 -8)">
    <path id="Path_323" data-name="Path 323" d="M4222.133,3863.1a8.274,8.274,0,0,1-.112-1.745c.056-1.915,2.533-14.583,2.7-14.977,0,0,.056-.112.056-.056.057.056,7.039-25.73,18.693-32.712,5.855-3.491,9.289-6.306,17.454-6.194,21.732.788,39.918,48.308,33.894,54.389-.057.113-.732,1.182-1.634.507,8.221-6.644-16.552-6.082-18.41-6.082C4262.784,3856.233,4229.17,3866.143,4222.133,3863.1Zm1.971-19.369c-.057,2.309-5.461,19.538-2.872,20.833,3.378,1.689,21.733-1.239,28.32-2.589,4.785-1.014,20.438-4.392,24.83-4.335,3.6.056,16.5-.732,18.411,2.7-1.8,4.786-22.859,2.309-28.6,2.2l-13.457-.168a1.956,1.956,0,0,0-1.183.338v.788c6.306,2.646,16.722.337,23.366,1.351,3.827.62,18.41,1.858,21.339-.788,13.175-12.443-14.639-57.542-34.4-58.1C4240.994,3805.674,4228.214,3827.913,4224.1,3843.734Z" transform="translate(-4230.53 -3797.953)" fill="#1d1d1d" fill-rule="evenodd"/>
    <path id="Path_324" data-name="Path 324" d="M281.374,215.436l-7.84-4.6V190.294l18.383,10.273L310.3,190.294v21.9l-6.218,3.244V203.811L293,209.759l-11.625-5.947Z" transform="translate(-263.737 -164.971)" fill="#1d1d1d"/>
  </g>
</svg>
