<svg xmlns="http://www.w3.org/2000/svg" width="66.833" height="66.833" viewBox="0 0 66.833 66.833">
  <path id="_4747498_instagram_social_media_icon" data-name="4747498_instagram_social media_icon" d="M54.344,16.683a3.81,3.81,0,1,1-1.116-2.694A3.813,3.813,0,0,1,54.344,16.683Zm12.1,17.2v.049l-.218,13.808a19.059,19.059,0,0,1-18.84,18.845L33.525,66.8h-.049L19.667,66.58A19.058,19.058,0,0,1,.822,47.739L.608,33.881v-.049L.826,20.024A19.059,19.059,0,0,1,19.667,1.179L33.525.965h.049l13.808.218a19.059,19.059,0,0,1,18.845,18.84Zm-16.014,0a16.9,16.9,0,1,1-4.951-11.952A16.9,16.9,0,0,1,50.427,33.881Zm-6.131,0A10.772,10.772,0,1,0,41.142,41.5,10.771,10.771,0,0,0,44.3,33.881Z" transform="translate(-0.108 -0.465)" fill="rgba(0,0,0,0)" stroke="gray" stroke-width="1"/>
</svg>
