<svg xmlns="http://www.w3.org/2000/svg" width="178" height="177.988" viewBox="0 0 178 177.988">
  <g id="text" transform="translate(-973.143 -972.643)">
    <path id="LEARN_MORE_ABOUT_MODELKOS_-_-" data-name="LEARN MORE ABOUT MODELKOS - -" d="M1076.412,1133.553c.23-3.037,1.321-4.493,3.664-5.156l4.608-1.3,5.374,19.026,2.181-.615-5.436-19.246-10.876,3.072Zm-4.342,9.772c-1.06-3.275-4.437-2.861-6.211-4.606l.161,2.232c3.87-.281,5.906.369,6.185,4.239l.33,4.576-2.317.167c-3.446.249-4.926.215-7.07-1.562l.164,2.261,11.412-.825-1.441-19.944-11.243.812-.348,4.227c.812-2.925,2.2-4.134,4.659-4.312l4.775-.345Zm-26.321-14.62-2.35-.375,5.2,21.084.2.03a89.632,89.632,0,0,0,8.155-11.718,20.272,20.272,0,0,0,1.938-4.393c.34-1.238.167-2.125-.534-2.582a.7.7,0,0,0-.416-.267c-1.25-.257-1.891.7-2.646,2.016-1.221,1.9-2.773,4.6-7.6,4.292Zm2,8.294c4.914.3,6.5-2.459,7.761-4.408.654-1.216,1.258-2.122,2.362-1.86a1.645,1.645,0,0,0,.37.2c.636.331.692,1.229.453,2.367a20.32,20.32,0,0,1-1.928,4.339,95.576,95.576,0,0,1-6.439,9.583Zm-18.257-2.526c-2.369-.746-4.865-.335-6.025,2.186-1.351,2.934,1.243,5.5,5.025,7.237l4.528,2.085,8.368-18.193-2.033-.935-6.64,14.435a8.831,8.831,0,0,0,.215-3.113,4.036,4.036,0,0,0-2.286-3.3c-5.815-2.677,4.569-9.932-4.8-14.241l-.095.2c1.725.793,1.777,3.187,1.725,5.876C1027.394,1129.611,1027.1,1132.625,1029.493,1134.473Zm-3.992,3.121c1.243-2.7,3.189-3.272,4.882-2.618l.181.083a4.086,4.086,0,0,1,2.131,3.162,8.989,8.989,0,0,1-.876,5.022l-.734,1.6-2.5-1.148C1026.092,1142.543,1024.151,1140.528,1025.5,1137.594Zm-14.025-2.77,12.717-15.433-1.64-1.351-12.591,15.279c-2.361-1.944-2.65-5.157-1.909-8.729a33.793,33.793,0,0,1,6.652-13.017l-1.638-1.351-12.717,15.433,1.64,1.349,10.338-12.547a30.439,30.439,0,0,0-4.434,10.147c-.822,3.58-.441,6.9,1.943,8.867Zm-30.853-37.349c2.929,5.242,11.157,2.721,17.107.013l-9.882,12.919,1.146,2.053,17.457-9.755-.083-.149-17.011,9.506,1.245-1.6,11.649-15.271-.139-.247c-4.5,2.515-15.007,7.868-19.846,4.082l16.862-9.422-1.05-1.88Zm-4.327-14.9a10.1,10.1,0,0,0,13.529,4.44,10.011,10.011,0,1,0-13.529-4.44Zm.216-.074c-2.336-4.486,1.251-9.3,5.28-11.333,3.986-1.97,10.085-2.012,12.3,2.469,2.235,4.422-1.373,9.265-5.325,11.256-4,2.031-10.044,2.061-12.258-2.393Zm6.289-27.418c-.091-2.482-1.316-4.7-4.08-4.944-3.216-.287-4.763,3.015-5.134,7.163l-.444,4.964,19.946,1.784.2-2.229-15.827-1.415a8.827,8.827,0,0,0,3-.84,4.037,4.037,0,0,0,2.339-3.26c.57-6.376,10.89.974,11.809-9.3l-.227-.02c-.169,1.891-2.406,2.743-4.956,3.595C986.678,1051.472,983.739,1052.2,982.8,1055.079Zm-4.28-2.716c2.962.266,4.153,1.907,4.1,3.724l-.019.2a4.084,4.084,0,0,1-2.264,3.067,9,9,0,0,1-5.025.859l-1.749-.157.245-2.736c.245-2.738,1.493-5.242,4.709-4.954Zm4.907-13.685c3.428.308,4.369-2.963,6.669-3.911l-2.115-.725c-1.26,3.671-2.651,5.289-6.322,4.031l-4.341-1.488.753-2.2c1.121-3.269,1.733-4.616,4.207-5.893l-2.144-.735-3.711,10.825,18.917,6.485,3.654-10.665-3.754-1.975c2.376,1.892,2.944,3.644,2.144,5.974l-1.552,4.528Zm28.933-24.508,1.495-1.852-20.881-5.966-.125.154a89.515,89.515,0,0,0,6.113,12.9,20.254,20.254,0,0,0,2.851,3.865c.9.91,1.76,1.2,2.5.82a.715.715,0,0,0,.44-.228c.844-.957.331-1.99-.433-3.3-1.04-2-2.617-4.7.054-8.729Zm-8.191-2.388c-2.7,4.116-1.1,6.865-.034,8.926.73,1.17,1.217,2.146.44,2.974a1.646,1.646,0,0,0-.358.22c-.6.387-1.412-.01-2.279-.785a20.224,20.224,0,0,1-2.807-3.828,95.7,95.7,0,0,1-5.115-10.35Zm11.36-14.664c1.549-1.76,2.2-4.014.673-6.055-1.95-2.609-5.435-1.6-8.838.947l-3.925,2.934,11.97,16.018,5.377-4.018c3.477-2.635,5.624-5.44,2.893-9.094C1021.273,994.63,1018.542,995.186,1015.531,997.119Zm6.381,2.056c3.052,4.084.6,6.2-1.441,7.724l-3.4,2.543-9.309-12.457a7.991,7.991,0,0,0,2.557,1.625,4.081,4.081,0,0,0,3.962-.379c1.973-1.474,4.6-3.118,7.635.943Zm-7.477-6.789c1.848,2.474,1.226,4.528-.294,5.665a3.733,3.733,0,0,1-3.727.311,8.582,8.582,0,0,1-3.943-3.1l-1.119-1.5,2.132-1.595C1009.661,990.543,1012.5,989.8,1014.435,992.386Zm13.4-12.173a10.1,10.1,0,0,0-2.18,14.072,10.01,10.01,0,1,0,2.18-14.072Zm.108.2c4.046-3.035,9.376-.277,12.041,3.365,2.592,3.612,3.625,9.623-.435,12.542-4,2.925-9.364.152-11.972-3.422C1024.922,989.281,1023.909,983.322,1027.944,980.414Zm21.451-6.676-2.229.189,1.077,12.728c.474,5.589,6.317,8.135,11.218,5.9a6.881,6.881,0,0,0,3.938-7.183l-1.079-12.729-2.2.186c2.068,2.269,2.667,8.33,3.025,12.563a6.56,6.56,0,0,1-3.761,6.943c-4.4,2.078-8.514-1.184-8.911-5.869Zm23.325,20.026,2.151.362,3.282-19.525c2.957.526,4.716.994,6.321,3.073l.365-2.178-15.447-2.6-.367,2.179c2.141-1.45,3.984-1.312,6.977-.838Zm43.327-3.177c-5.115-3.143-11.064,3.072-14.934,8.341l2.315-16.1-2-1.231-10.472,17.036.144.088,10.207-16.6-.3,2.007-2.711,19.013.24.149c2.7-4.391,9.258-14.192,15.328-13.252l-10.115,16.456,1.833,1.128Zm11.025,10.832a10.1,10.1,0,0,0-13.965,2.776,10.01,10.01,0,1,0,13.965-2.776Zm-.152.171c4.239,2.761,3.475,8.713.966,12.465-2.5,3.673-7.8,6.7-11.93,3.889-4.119-2.753-3.351-8.744-.888-12.42,2.487-3.734,7.738-6.728,11.852-3.935Zm-2.732,30.1a10,10,0,0,0,18.2-8.291l-2.677-5.878-18.2,8.291Zm16.256-12.075,1.76,3.867c1.8,3.943-.78,8.945-5.7,11.189s-10.311.869-12.107-3.076l-1.762-3.865Zm1.738,22.729c-3.127,1.441-2.313,4.746-3.837,6.715l2.2-.426c-.737-3.81-.335-5.906,3.475-6.644l4.5-.873.441,2.281c.656,3.392.8,4.865-.712,7.205l2.225-.43-2.175-11.234-19.632,3.8,2.142,11.067,4.239-.157c-3-.458-4.368-1.694-4.836-4.112l-.908-4.7Zm-7.034,26.162c-2.844-1.094-3.925-2.557-3.886-4.993l.078-4.785,19.769.32.035-2.264-19.994-.325-.184,11.3Zm4.768,11.2c-1.591,6.229-10.553-2.636-13.1,7.354l.22.056c.49-1.921,2.82-2.349,5.509-2.8,3.2-.526,6.612-.708,7.592-4.55a3.2,3.2,0,0,0-.365-2.462,39.038,39.038,0,0,1,5.661,7.029c-.022.081,1.6,2.776,1.495,4.8l1.162-4.557c-1.407,1.162-3.923-2.492-3.923-2.492-2.716-3.791-5.237-6.627-10.146-8.581l15.863,4.048.533-2.085-19.376-4.946-.533,2.087a21.4,21.4,0,0,1,8.177,3.811,3.276,3.276,0,0,1,1.234,3.3Zm1.74,21.25a10.1,10.1,0,0,0-7.526-12.087,10.01,10.01,0,1,0,7.526,12.087Zm-.213-.081c-1.087,4.939-6.926,6.326-11.322,5.3-4.32-1.047-9.025-4.927-7.851-9.789,1.123-4.826,7-6.223,11.307-5.215,4.373,1.01,9.026,4.865,7.866,9.7Zm-14.194,14.342c-2.344-2.22-5.561-1.173-8.632.091-6.74,2.705-9.209,1.069-9.053-1.359.277-4.657,6.429-7.567,13.438-4.748l-2.858-2.709c-5.183-.5-10.467,3.426-10.9,7.465a4.377,4.377,0,0,0,1.439,3.627c2.427,2.3,5.624,1.272,8.715-.052,7.1-2.8,9.515-.817,9.043,1.781-.477,3.138-4.332,6.588-10.514,4.67l2.159,2.046C1124.619,1126.968,1131.833,1119.562,1127.248,1115.216Zm-23.159,13.852-.659-1.189-6.887,3.818.66,1.19Z" fill-rule="evenodd"/>
    <g id="arrow-left" transform="translate(1038.143 1052.643)">
      <line id="Line_2" data-name="Line 2" x1="48" transform="translate(0 9)" fill="none" stroke="gray" stroke-linecap="round" stroke-linejoin="round" stroke-width="2"/>
      <line id="Line_3" data-name="Line 3" x1="8" y1="9" transform="translate(40)" fill="none" stroke="gray" stroke-linecap="round" stroke-linejoin="round" stroke-width="2"/>
      <line id="Line_4" data-name="Line 4" x1="8" y2="9" transform="translate(40 9)" fill="none" stroke="gray" stroke-linecap="round" stroke-linejoin="round" stroke-width="2"/>
    </g>
  </g>
</svg>
