<svg xmlns="http://www.w3.org/2000/svg" width="34.081" height="22.863" viewBox="0 0 34.081 22.863">
  <g id="Group_13178" data-name="Group 13178" transform="translate(-1673.974 -16402.568)">
    <g id="Flags" transform="translate(1180.584 15106.889)">
      <g id="uk" transform="translate(493.39 1295.68)">
        <g id="Group_37" data-name="Group 37" transform="translate(0 0)">
          <path id="Shape" d="M15.088.68H13.565V7.649L1.4,1.566A3.222,3.222,0,0,0,.425,3.629L9.769,8.3H6.362L.41,5.328v.861L4.659,8.311H.41V9.834H15.1Z" transform="translate(-0.4 -0.68)" fill="#fff"/>
          <path id="Shape-2" data-name="Shape" d="M53.739,37.153a3.222,3.222,0,0,0,1.032-2.039l-9.451-4.721h3.407l6.064,3.032v-.852l-4.38-2.18h4.38V28.87H40v9.144h1.523V31.045Z" transform="translate(-20.723 -15.151)" fill="#fff"/>
          <path id="Shape-3" data-name="Shape" d="M41.509.68H40V9.824H54.8V8.3h-4.38l4.38-2.18V3.571L45.348,8.3H41.942L54.288,2.121a3.25,3.25,0,0,0-.487-.6L41.509,7.649Z" transform="translate(-20.723 -0.68)" fill="#fff"/>
          <path id="Shape-4" data-name="Shape" d="M.39,28.86v1.528H4.639L.39,32.51v2.545l9.344-4.672h3.407L.886,36.51a3.24,3.24,0,0,0,.487.6L13.54,31.035V38h1.523V28.86Z" transform="translate(-0.39 -15.146)" fill="#fff"/>
          <path id="Shape-5" data-name="Shape" d="M34.457,14.394V9.824h-14.8V.68H15.078V9.824H.39v4.57H15.078v9.144h4.575V14.394Z" transform="translate(-0.39 -0.68)" fill="#ec5565"/>
          <path id="Shape-6" data-name="Shape" d="M9.754,11.412.41,6.74V8.434l5.952,2.974Z" transform="translate(-0.4 -3.791)" fill="#ec5565"/>
          <path id="Shape-7" data-name="Shape" d="M47.337,9.816,56.793,5.09a3.212,3.212,0,0,0-.516-1.46L43.93,9.806Z" transform="translate(-22.741 -2.194)" fill="#ec5565"/>
          <path id="Shape-8" data-name="Shape" d="M50.93,32l9.451,4.726a3.259,3.259,0,0,0,0-.341V35.032L54.337,32Z" transform="translate(-26.334 -16.758)" fill="#ec5565"/>
          <path id="Shape-9" data-name="Shape" d="M9.754,32,.41,36.672A3.212,3.212,0,0,0,.9,38.132L13.165,32Z" transform="translate(-0.4 -16.758)" fill="#ec5565"/>
          <path id="Shape-10" data-name="Shape" d="M43.1,7.649,55.344,1.527A3.217,3.217,0,0,0,53.476.68H43.1Z" transform="translate(-22.315 -0.68)" fill="#4658a9"/>
          <path id="Shape-11" data-name="Shape" d="M65.791,34.17V31.99H61.43Z" transform="translate(-31.724 -16.753)" fill="#4658a9"/>
          <path id="Shape-12" data-name="Shape" d="M65.791,14.04V11.86L61.43,14.04Z" transform="translate(-31.724 -6.419)" fill="#4658a9"/>
          <path id="Shape-13" data-name="Shape" d="M2.46,39.408a3.217,3.217,0,0,0,2.224.891h9.933V33.33Z" transform="translate(-1.453 -17.44)" fill="#4658a9"/>
          <path id="Shape-14" data-name="Shape" d="M43.1,33.33V40.3H53.15a3.217,3.217,0,0,0,2.18-.852Z" transform="translate(-22.315 -17.44)" fill="#4658a9"/>
          <path id="Shape-15" data-name="Shape" d="M14.607.68H4.348a3.217,3.217,0,0,0-1.908.886L14.607,7.649Z" transform="translate(-1.442 -0.68)" fill="#4658a9"/>
          <path id="Shape-16" data-name="Shape" d="M.39,31.99v2.122L4.634,31.99Z" transform="translate(-0.39 -16.753)" fill="#4658a9"/>
          <path id="Shape-17" data-name="Shape" d="M.39,11.97V14.1H4.634Z" transform="translate(-0.39 -6.476)" fill="#4658a9"/>
        </g>
      </g>
    </g>
  </g>
</svg>
